<svg xmlns="http://www.w3.org/2000/svg" width="40" height="40" viewBox="0 0 40 40">
  <path class="emphasize fill" d="M26.1,31.1H13.5V8.7h12.6L26.1,31.1L26.1,31.1z M25.2,5H14.3c-0.9,0-1.5,0.7-1.5,1.6v26.9c0,0.9,0.7,1.6,1.5,1.6h10.9 c0.9,0,1.5-0.7,1.5-1.6V6.6C26.8,5.7,26.1,5,25.2,5z M18.9,7h1.8C20.9,7,21,7.1,21,7.3c0,0.1-0.2,0.3-0.4,0.3h-1.8 c-0.2,0-0.4-0.1-0.4-0.3C18.5,7.1,18.7,7,18.9,7z M19.8,34.1c-0.6,0-1-0.4-1-1s0.5-1,1-1c0.6,0,1,0.4,1,1 C20.8,33.6,20.3,34.1,19.8,34.1z M19.8,6.2c0.2,0,0.3,0.1,0.3,0.3c0,0.2-0.1,0.3-0.3,0.3c-0.2,0-0.3-0.1-0.3-0.3 C19.5,6.3,19.6,6.2,19.8,6.2z"/>
  <path class="green fill" d="M19.8,16.2c-2.4,0-4.2,1.9-4.2,4.2s1.9,4.2,4.2,4.2s4.2-1.9,4.2-4.2S22.2,16.2,19.8,16.2z M19.8,24.3 c-2.2,0-3.8-1.7-3.8-3.8s1.7-3.8,3.8-3.8c2.2,0,3.8,1.7,3.8,3.8S21.9,24.3,19.8,24.3z M19.2,22.1c0,0-0.1,0-0.2-0.1l-1.3-1.5 c-0.1-0.1-0.1-0.2,0-0.3c0.1-0.1,0.2-0.1,0.3,0l1.2,1.3l2.5-2.7c0.1-0.1,0.2-0.1,0.3,0c0.1,0.1,0.1,0.2,0,0.3L19.3,22 C19.3,22.1,19.2,22.1,19.2,22.1z"/>
</svg>
