<svg xmlns="http://www.w3.org/2000/svg" width="40" height="40" viewBox="0 0 40 40">
  <path class="emphasize fill" d="M34.3,15c0.4,0,0.7-0.3,0.7-0.7V5.7C35,5.3,34.7,5,34.3,5h-8.5C25.3,5,25,5.3,25,5.7s0.3,0.7,0.7,0.7h6.7l-9.8,9.8 c-0.3,0.3-0.3,0.8,0,1c0.1,0.1,0.3,0.2,0.5,0.2c0.2,0,0.4-0.1,0.5-0.2l9.8-9.8v6.7C33.5,14.7,33.9,15,34.3,15z M17.4,22.6 c-0.3-0.3-0.8-0.3-1,0l-9.8,9.8v-6.7c0-0.4-0.3-0.7-0.7-0.7S5,25.3,5,25.7v8.5C5,34.7,5.3,35,5.7,35h8.5c0.4,0,0.7-0.3,0.7-0.7 c0-0.4-0.3-0.7-0.7-0.7H7.5l9.8-9.8C17.7,23.4,17.7,22.9,17.4,22.6z"/>
</svg>
