<svg xmlns="http://www.w3.org/2000/svg" width="40" height="40" viewBox="0 0 40 40">
  <path class="emphasize fill" d="M16.4,32.6c0.4,0,0.7-0.3,0.7-0.7v-8.2c0-0.4-0.3-0.7-0.7-0.7H8.2c-0.4,0-0.7,0.3-0.7,0.7s0.3,0.7,0.7,0.7h6.5l-9.4,9.4 c-0.3,0.3-0.3,0.7,0,1C5.3,34.9,5.5,35,5.7,35c0.2,0,0.4-0.1,0.5-0.2l9.5-9.5v6.5C15.7,32.2,16,32.6,16.4,32.6z M23.5,7.5 c-0.4,0-0.7,0.3-0.7,0.7v8.2c0,0.4,0.3,0.7,0.7,0.7h8.2c0.4,0,0.7-0.3,0.7-0.7c0-0.4-0.3-0.7-0.7-0.7h-6.5l9.5-9.5 c0.3-0.3,0.3-0.7,0-1c-0.3-0.3-0.7-0.3-1,0l-9.5,9.5V8.2C24.3,7.8,23.9,7.5,23.5,7.5z"/>
</svg>
