<svg xmlns="http://www.w3.org/2000/svg" width="40" height="40" viewBox="0 0 40 40">
  <path class="emphasize fill" d="M4.9,16.1c-0.7,0-1.2,0.6-1.2,1.2v5.8c0,0.7,0.6,1.2,1.2,1.2h2.6c0.7,0,1.7,0.3,2.2,0.7l6.2,4.4c0.6,0.4,1,0.2,1-0.5V11.8 c0-0.7-0.5-0.9-1-0.5l-6.2,4.2c-0.6,0.4-1.6,0.7-2.2,0.7C7.5,16.1,4.9,16.1,4.9,16.1z M34.3,25c0.4,0.4,0.4,1,0,1.4 c-0.2,0.2-0.5,0.3-0.7,0.3s-0.5-0.1-0.7-0.3L28,21.4L23,26.4c-0.2,0.2-0.5,0.3-0.7,0.3s-0.5-0.1-0.7-0.3c-0.4-0.4-0.4-1,0-1.4 l4.9-4.9l-4.9-4.9c-0.4-0.4-0.4-1,0-1.4s1-0.4,1.4,0l4.9,4.9l4.9-4.9c0.4-0.4,1-0.4,1.4,0s0.4,1,0,1.4L29.4,20L34.3,25z"/>
</svg>
