<svg xmlns="http://www.w3.org/2000/svg" width="40" height="40" viewBox="0 0 40 40">
  <path class="emphasize fill" d="M26.1,31.1H13.5V8.7h12.6L26.1,31.1L26.1,31.1z M25.2,5H14.3c-0.9,0-1.5,0.7-1.5,1.6v26.9c0,0.9,0.7,1.6,1.5,1.6h10.9 c0.9,0,1.5-0.7,1.5-1.6V6.6C26.8,5.7,26.1,5,25.2,5z M18.9,7h1.8C20.9,7,21,7.1,21,7.3c0,0.1-0.2,0.3-0.4,0.3h-1.8 c-0.2,0-0.4-0.1-0.4-0.3C18.5,7.1,18.7,7,18.9,7z M19.8,34.1c-0.6,0-1-0.4-1-1s0.5-1,1-1c0.6,0,1,0.4,1,1 C20.8,33.6,20.3,34.1,19.8,34.1z M19.8,6.2c0.2,0,0.3,0.1,0.3,0.3c0,0.2-0.1,0.3-0.3,0.3c-0.2,0-0.3-0.1-0.3-0.3 C19.5,6.3,19.6,6.2,19.8,6.2z"/>
  <path class="red fill" d="M21.4,18.4c-0.1-0.1-0.2-0.1-0.3,0l-1.3,1.3l-1.3-1.3c-0.1-0.1-0.2-0.1-0.3,0s-0.1,0.2,0,0.3l1.3,1.3l-1.3,1.3 c-0.1,0.1-0.1,0.2,0,0.3c0,0,0.1,0.1,0.1,0.1s0.1,0,0.1-0.1l1.3-1.3l1.3,1.3c0,0,0.1,0.1,0.1,0.1s0.1,0,0.1-0.1 c0.1-0.1,0.1-0.2,0-0.3L20.1,20l1.3-1.3C21.5,18.6,21.5,18.5,21.4,18.4z M19.8,15.8c-2.4,0-4.2,1.9-4.2,4.2s1.9,4.2,4.2,4.2 S24,22.4,24,20S22.2,15.8,19.8,15.8z M19.8,23.8c-2.2,0-3.8-1.7-3.8-3.8s1.7-3.8,3.8-3.8c2.2,0,3.8,1.7,3.8,3.8S21.9,23.8,19.8,23.8 z"/>
</svg>
