<svg xmlns="http://www.w3.org/2000/svg" width="40" height="40" viewBox="0 0 40 40">
  <path class="emphasize fill" d="M5,11.2v-0.6l0.1-0.1h6.8l0.1,0.1v0.5c0,0.1-0.1,0.2-0.3,0.2l-0.7,0c-0.6,0-0.9,0.2-0.9,0.5 c0,0.2,0.1,0.5,0.2,0.8c0.9,2.2,2.9,6.6,6,13.1l0.2,0l3-6c-0.2-0.5-0.4-1-0.6-1.3l-2.6-5.2c-0.5-0.9-0.8-1.5-0.9-1.7 c-0.1-0.2-0.4-0.3-0.9-0.4c-0.2,0-0.4-0.1-0.4-0.2v-0.6l0.1-0.1h5.3l0.1,0v0.6c0,0.1-0.1,0.2-0.3,0.2l-0.4,0.1 c-0.5,0.1-0.7,0.1-0.7,0.5c0,0.2,0.1,0.3,0.1,0.5s0.2,0.4,0.4,0.8l2,4.1l2.2-4.4c0.6-1.2,0.2-1.4-0.9-1.5l-0.2,0 c-0.1,0-0.3-0.1-0.3-0.2v-0.5l0.1-0.1c1,0,2.7,0,5,0l0.1,0.1v0.5c0,0.1-0.1,0.2-0.2,0.2c-0.8,0-0.9,0.1-1.3,0.5 c-0.4,0.6-0.7,1.1-0.8,1.3l-2.8,5.3l-0.1,0.2l3.5,7.1l0.2,0.1l5.5-13c0.4-1-0.2-1.4-1.1-1.5l-0.5,0c-0.1,0-0.3-0.1-0.3-0.2v-0.5 l0.1-0.1h6.2l0.1,0.1v0.5c0,0.1-0.1,0.2-0.2,0.2c-1.7,0.1-2.2,0.7-2.7,1.8l-6.8,15.4c-0.4,0.8-0.8,1.1-1.2,0.8 c-0.2-0.1-0.4-0.4-0.6-0.8c-0.7-1.4-1.8-3.7-3.3-7.1c-1.9,3.9-3.1,6.3-3.6,7.2c-0.7,1.3-1.4,1.3-1.9,0c-0.6-1.4-1.8-3.9-3.5-7.7 s-3-6.4-3.5-7.8c-0.6-1.5-0.7-1.7-2.2-1.8C5.1,11.4,5,11.3,5,11.2z"/>
</svg>
