<svg xmlns="http://www.w3.org/2000/svg" width="40" height="40" viewBox="0 0 40 40">
  <path class="emphasize fill" d="M5,29.4c0.4,0,0.9,0.1,1.5,0.1c2.9,0,5.4-0.9,7.6-2.6c-2.7,0-4.9-1.8-5.8-4.3c0.4,0.1,0.8,0.1,1.2,0.1 c0.5,0,1.1-0.1,1.6-0.2c-2.9-0.6-4.9-3-4.9-6v-0.1C7.1,16.9,8,17.1,9,17.2c-1.7-1.1-2.8-3-2.8-5.2c0-1.1,0.3-2.1,0.9-3.1 c3,3.8,7.6,6.2,12.7,6.4c-0.1-0.5-0.2-1-0.2-1.4c0-3.4,2.8-6.1,6.1-6.1c1.8,0,3.3,0.6,4.5,1.9C31.7,9.5,33,9,34.2,8.3 c-0.4,1.5-1.4,2.6-2.7,3.4c1.2-0.1,2.4-0.4,3.5-1c-0.9,1.2-1.9,2.3-3.1,3.2v0.8c0,3.3-1,6.7-2.9,9.7s-4.6,5.3-8.4,6.8 c-1.9,0.7-4,1.1-6.2,1C11,32.2,7.9,31.3,5,29.4z"/>
</svg>
